/* XPM */
static char * gnome_warning_xpm[] = {
"27 27 311 2",
"  	c None",
". 	c #EF2913",
"+ 	c #CD2311",
"@ 	c #D42511",
"# 	c #AE1E0F",
"$ 	c #8E190D",
"% 	c #F52913",
"& 	c #DD2612",
"* 	c #B31F0F",
"= 	c #A41C0E",
"- 	c #9B1B0E",
"; 	c #7B160B",
"> 	c #E82813",
", 	c #B8200F",
"' 	c #A61D0E",
") 	c #AC320F",
"! 	c #A31F0E",
"~ 	c #89180D",
"{ 	c #F02913",
"] 	c #C42210",
"^ 	c #B44510",
"/ 	c #C77A12",
"( 	c #A6260F",
"_ 	c #9D1C0F",
": 	c #8F1A0E",
"< 	c #D72512",
"[ 	c #A91D0F",
"} 	c #AC2F0F",
"| 	c #CF8611",
"1 	c #DFB012",
"2 	c #B95011",
"3 	c #A21D0F",
"4 	c #901A0E",
"5 	c #65120A",
"6 	c #E32712",
"7 	c #B9200F",
"8 	c #A7210E",
"9 	c #C46C11",
"0 	c #DFB112",
"a 	c #D49412",
"b 	c #A11D10",
"c 	c #9D1C10",
"d 	c #73150C",
"e 	c #C72211",
"f 	c #AB2D0E",
"g 	c #D7A311",
"h 	c #C29A0F",
"i 	c #CAA010",
"j 	c #DBA613",
"k 	c #BC5C11",
"l 	c #A01D10",
"m 	c #911A0F",
"n 	c #510F08",
"o 	c #DA2512",
"p 	c #AD1E0F",
"q 	c #CC8511",
"r 	c #7D6309",
"s 	c #090700",
"t 	c #261D03",
"u 	c #CFA012",
"v 	c #CE8712",
"w 	c #A72A11",
"x 	c #9F1D11",
"y 	c #7B160D",
"z 	c #EB2813",
"A 	c #BA2010",
"B 	c #B74C10",
"C 	c #CF9E11",
"D 	c #3E3104",
"E 	c #080500",
"F 	c #0C0900",
"G 	c #CC9E11",
"H 	c #B95712",
"I 	c #A01D11",
"J 	c #8E1A10",
"K 	c #5C110B",
"L 	c #D32512",
"M 	c #A71D0E",
"N 	c #B33E10",
"O 	c #D69912",
"P 	c #CFA411",
"Q 	c #1C1602",
"R 	c #020100",
"S 	c #1A1401",
"T 	c #CD9F12",
"U 	c #DCAB15",
"V 	c #CD8614",
"W 	c #A83012",
"X 	c #9A1D12",
"Y 	c #75160D",
"Z 	c #DD2613",
"` 	c #B11F10",
" .	c #A51F0E",
"..	c #C16611",
"+.	c #DFAF12",
"@.	c #1E1702",
"#.	c #0F0B01",
"$.	c #352904",
"%.	c #CEA013",
"&.	c #DBA915",
"*.	c #B24913",
"=.	c #9F1E12",
"-.	c #8B1A10",
";.	c #EB2814",
">.	c #C72312",
",.	c #B13D0F",
"'.	c #D9A312",
").	c #D0A212",
"!.	c #2D2303",
"~.	c #403105",
"{.	c #CFA114",
"].	c #DBAA16",
"^.	c #D39715",
"/.	c #A22512",
"(.	c #981D12",
"_.	c #6A140D",
":.	c #DE2613",
"<.	c #A5210F",
"[.	c #C97B11",
"}.	c #0E0B01",
"|.	c #0C0A01",
"1.	c #2B2104",
"2.	c #CD9F14",
"3.	c #B55014",
"4.	c #9D1E13",
"5.	c #841910",
"6.	c #470D08",
"7.	c #E92814",
"8.	c #C52211",
"9.	c #A61D0F",
"0.	c #C16212",
"a.	c #DEAC13",
"b.	c #CB9D11",
"c.	c #080600",
"d.	c #0B0900",
"e.	c #241C03",
"f.	c #CC9E14",
"g.	c #DAAA17",
"h.	c #CE8D16",
"i.	c #9F1E13",
"j.	c #981D13",
"k.	c #5F120C",
"l.	c #DC2714",
"m.	c #AE1F10",
"n.	c #A6250F",
"o.	c #D69A12",
"p.	c #CB9D12",
"q.	c #0F0C01",
"r.	c #100D01",
"s.	c #3C2F05",
"t.	c #CFA115",
"u.	c #D8A417",
"v.	c #BA5E15",
"w.	c #9C1E14",
"x.	c #821911",
"y.	c #EC2914",
"z.	c #C12211",
"A.	c #A31D0F",
"B.	c #C36D11",
"C.	c #DDAC12",
"D.	c #D1A314",
"E.	c #604B09",
"F.	c #3B2E05",
"G.	c #6C540A",
"H.	c #D4A515",
"I.	c #D9AA18",
"J.	c #C98418",
"K.	c #A42D14",
"L.	c #941D13",
"M.	c #57110C",
"N.	c #DE2714",
"O.	c #AA1E0F",
"P.	c #AE3710",
"Q.	c #D29212",
"R.	c #DEAD13",
"S.	c #DBAA15",
"T.	c #C19612",
"U.	c #98760F",
"V.	c #BD9213",
"W.	c #DAA916",
"X.	c #D8A919",
"Y.	c #D6A319",
"Z.	c #B55416",
"`.	c #9B1F15",
" +	c #761810",
".+	c #EB2915",
"++	c #C52312",
"@+	c #BC5A10",
"#+	c #DDAB13",
"$+	c #AC8510",
"%+	c #554208",
"&+	c #A78210",
"*+	c #D9A917",
"=+	c #D9A918",
"-+	c #C57A18",
";+	c #A32C15",
">+	c #881B13",
",+	c #56110C",
"'+	c #DB2714",
")+	c #AC1F10",
"!+	c #AD3710",
"~+	c #D59912",
"{+	c #DDAC14",
"]+	c #3A2D05",
"^+	c #050300",
"/+	c #513F08",
"(+	c #D1A316",
"_+	c #D09619",
":+	c #A83816",
"<+	c #941E15",
"[+	c #60140E",
"}+	c #C42312",
"|+	c #A61E0F",
"1+	c #BB5911",
"2+	c #DFAD13",
"3+	c #D1A215",
"4+	c #503E07",
"5+	c #231B03",
"6+	c #795E0C",
"7+	c #D4A516",
"8+	c #D7A81A",
"9+	c #B45516",
"0+	c #9A1F16",
"a+	c #781811",
"b+	c #D82715",
"c+	c #B22011",
"d+	c #A31E10",
"e+	c #B54D12",
"f+	c #BD5D12",
"g+	c #BC5C12",
"h+	c #BB5C13",
"i+	c #BF6513",
"j+	c #CB8414",
"k+	c #CF8F15",
"l+	c #D19815",
"m+	c #BB9213",
"n+	c #A17D11",
"o+	c #CDA015",
"p+	c #D9AA19",
"q+	c #D8A91A",
"r+	c #D8A71B",
"s+	c #C78217",
"t+	c #A33116",
"u+	c #891B14",
"v+	c #4E100C",
"w+	c #C22312",
"x+	c #A41D0F",
"y+	c #A21D10",
"z+	c #A11D11",
"A+	c #A22111",
"B+	c #A72F12",
"C+	c #A93312",
"D+	c #AA3813",
"E+	c #AD3F14",
"F+	c #AC3F15",
"G+	c #AB3F16",
"H+	c #AB4016",
"I+	c #AA3F17",
"J+	c #A73816",
"K+	c #9F2616",
"L+	c #931D16",
"M+	c #5B130E",
"N+	c #631109",
"O+	c #520F08",
"P+	c #5F110A",
"Q+	c #6D130B",
"R+	c #7A160D",
"S+	c #83180E",
"T+	c #901B0F",
"U+	c #931C11",
"V+	c #961C11",
"W+	c #981D11",
"X+	c #971D12",
"Y+	c #9A1D13",
"Z+	c #9A1E14",
"`+	c #991E14",
" @	c #991E15",
".@	c #981E15",
"+@	c #981E16",
"@@	c #971E16",
"#@	c #941E16",
"$@	c #6F1611",
"%@	c #020202",
"&@	c #080302",
"*@	c #180504",
"=@	c #220705",
"-@	c #290805",
";@	c #350B06",
">@	c #3B0B08",
",@	c #420D08",
"'@	c #50100A",
")@	c #54100B",
"!@	c #56110B",
"~@	c #65130D",
"{@	c #6C150E",
"]@	c #6B150E",
"^@	c #6A150F",
"/@	c #691510",
"(@	c #681510",
"_@	c #61140F",
":@	c #470F0B",
"<@	c #0E0404",
"[@	c #040202",
"}@	c #0C0403",
"|@	c #0F0403",
"1@	c #160504",
"2@	c #1B0604",
"3@	c #1A0605",
"4@	c #170605",
"5@	c #100504",
"6@	c #030101",
"                          . +                         ",
"                        . @ # $                       ",
"                      % & * = - ;                     ",
"                      > , ' ) ! ~                     ",
"                    { ] = ^ / ( _ :                   ",
"                    < [ } | 1 2 3 4 5                 ",
"                  6 7 8 9 1 0 a b c d                 ",
"                  e ' f g h i j k l m n               ",
"                o p = q r s t u v w x y               ",
"              z A = B C D E F G j H I J K             ",
"              L M N O P Q R S T U V W X Y             ",
"            Z `  ...+.P @.#.$.%.U &.*.=.-.            ",
"          ;.>.M ,.'.0 ).!.Q ~.{.U ].^./.(._.          ",
"          :.` <.[.0 +.G }.|.1.2.].].].3.4.5.6.        ",
"        7.8.9.0.0 +.a.b.c.d.e.f.].].g.h.i.j.k.        ",
"        l.m.n.o.+.a.a.p.q.r.s.t.].g.g.u.v.w.x.        ",
"      y.z.A.B.C.a.a.a.D.E.F.G.H.].g.g.I.J.K.L.M.      ",
"      N.O.P.Q.R.a.a.U S.T.U.V.W.g.g.g.X.Y.Z.`. +      ",
"    .+++A.@+#+a.a.U U S.$+%+&+*+g.g.=+X.X.-+;+>+,+    ",
"    '+)+!+~+a.a.{+U U t.]+^+/+(+g.=+X.X.X._+:+<+[+    ",
"    }+|+1+2+a.{+U U U 3+4+5+6+7+=+X.X.X.8+8+9+0+a+    ",
"  b+c+d+e+f+g+h+i+j+k+l+m+n+o+I.p+p+X.q+q+r+s+t+u+v+  ",
"  w+x+y+y+y+z+z+A+B+C+D+E+E+E+F+F+G+H+G+G+I+J+K+L+M+  ",
"  N+O+P+Q+R+S+T+U+V+W+X+(.Y+Y+Y+Z+`+`+ @.@.@+@@@#@$@  ",
"    %@&@*@=@-@;@>@,@'@)@!@~@{@{@{@]@]@^@^@^@/@(@_@:@<@",
"            %@%@%@[@}@|@|@1@2@2@2@2@2@3@3@3@3@3@4@5@6@",
"                            %@%@%@%@%@%@%@%@%@%@%@%@  "};
