/* XPM */
static char * gtkwave_16_xpm[] = {
"16 16 103 2",
"  	c None",
". 	c #000000",
"+ 	c #898989",
"@ 	c #747474",
"# 	c #6C6C6C",
"$ 	c #5B5B5B",
"% 	c #5C5C5C",
"& 	c #5E5E5E",
"* 	c #555555",
"= 	c #3C3C3C",
"- 	c #353535",
"; 	c #767676",
"> 	c #585858",
", 	c #323232",
"' 	c #282828",
") 	c #292929",
"! 	c #292928",
"~ 	c #2A2F25",
"{ 	c #2D3427",
"] 	c #30352D",
"^ 	c #2E352C",
"/ 	c #252723",
"( 	c #2E2E2E",
"_ 	c #020202",
": 	c #031B00",
"< 	c #297506",
"[ 	c #276D05",
"} 	c #1E5706",
"| 	c #1F5A06",
"1 	c #174204",
"2 	c #254815",
"3 	c #41473A",
"4 	c #5D5D5D",
"5 	c #2B2B2B",
"6 	c #010700",
"7 	c #2B7207",
"8 	c #49C211",
"9 	c #44B80E",
"0 	c #338F0B",
"a 	c #37930C",
"b 	c #34890B",
"c 	c #409915",
"d 	c #52773F",
"e 	c #5A5F5A",
"f 	c #32372D",
"g 	c #102E03",
"h 	c #30820B",
"i 	c #3BA10C",
"j 	c #318709",
"k 	c #215B07",
"l 	c #256207",
"m 	c #266408",
"n 	c #397F17",
"o 	c #526D44",
"p 	c #527643",
"q 	c #387B1B",
"r 	c #1E5506",
"s 	c #205606",
"t 	c #328C0A",
"u 	c #3EA70D",
"v 	c #2D800A",
"w 	c #0E2901",
"x 	c #040D00",
"y 	c #061101",
"z 	c #071402",
"A 	c #28381E",
"B 	c #545B54",
"C 	c #58A235",
"D 	c #48B216",
"E 	c #37960D",
"F 	c #36950D",
"G 	c #44B90E",
"H 	c #48C110",
"I 	c #276D06",
"J 	c #090D09",
"K 	c #0F0F0F",
"L 	c #070707",
"M 	c #222222",
"N 	c #55714C",
"O 	c #38761D",
"P 	c #225A08",
"Q 	c #2C6512",
"R 	c #327B14",
"S 	c #337915",
"T 	c #283819",
"U 	c #3A3A39",
"V 	c #404040",
"W 	c #343434",
"X 	c #242424",
"Y 	c #303030",
"Z 	c #575757",
"` 	c #464645",
" .	c #161915",
"..	c #111310",
"+.	c #323530",
"@.	c #373F34",
"#.	c #4D5149",
"$.	c #5A5B5A",
"%.	c #656565",
"&.	c #666666",
"*.	c #3A3A3A",
"=.	c #373737",
"-.	c #434343",
"                                ",
"                                ",
"  . . . . . . . . . . . . . . . ",
"  . + @ # $ % % $ & & & * = - . ",
"  . ; > , ' ) ! ~ { ] ^ / ) = . ",
"  . % ( _ . . : < [ } | 1 2 3 . ",
"  . 4 5 . . 6 7 8 9 0 a b c d . ",
"  . e f . . g h i j k l m n o . ",
"  . p q r s t u v w x y z A B . ",
"  . C D E F G H I J K L _ M * . ",
"  . N O P Q R S T U V W X Y Z . ",
"  . `  ...+.@.#.$.%.&.* *.=.-.. ",
"  . . . . . . . . . . . . . . . ",
"                                ",
"                                ",
"                                "};
