/* XPM */
static char * pause_xpm[] = {
"24 24 25 1",
" 	c None",
".	c #727170",
"+	c #999996",
"@	c #000000",
"#	c #FFFFFF",
"$	c #737372",
"%	c #848483",
"&	c #888887",
"*	c #7E7E7D",
"=	c #A8A7A6",
"-	c #A5A4A2",
";	c #B5B3B1",
">	c #AAA9A7",
",	c #BFBDBA",
"'	c #91908E",
")	c #AEADAB",
"!	c #CACAC8",
"~	c #BBBAB7",
"{	c #D5D3D2",
"]	c #B2B0AD",
"^	c #C3C1BE",
"/	c #D9D8D6",
"(	c #D1CFCC",
"_	c #DEDDDB",
":	c #F3F3F3",
"                        ",
"                        ",
"                        ",
"                        ",
"     .+++++++++++       ",
"     .@@@@@#@@@@@#      ",
"     .@$%&@#@$%&@#      ",
"     .@*=-@#@*=-@#      ",
"     .@*=;@#@*=;@#      ",
"     .@%>,@#@%>,@#      ",
"     .@')!@#@')!@#      ",
"     .@')!@#@')!@#      ",
"     .@')!@#@')!@#      ",
"     .@-~{@#@=~{@#      ",
"     .@-~{@#@-~{@#      ",
"     .@),{@#@),{@#      ",
"     .@]^/@#@]^/@#      ",
"     .@;(_@#@;(_@#      ",
"     .@@@@@#@@@@@#      ",
"     .#####:######      ",
"                        ",
"                        ",
"                        ",
"                        "};
