/* XPM */
static char * play_xpm[] = {
"24 24 25 1",
" 	c None",
".	c #727170",
"+	c #999996",
"@	c #000000",
"#	c #7D7C7B",
"$	c #6C6B6A",
"%	c #848381",
"&	c #9D9C9A",
"*	c #B0AFAC",
"=	c #908F8D",
"-	c #A1A09E",
";	c #B5B3B1",
">	c #A5A4A1",
",	c #898886",
"'	c #B9B6B4",
")	c #BBB9B6",
"!	c #C3C2BF",
"~	c #FFFFFF",
"{	c #8D8C8A",
"]	c #A9A8A5",
"^	c #BDBCB9",
"/	c #C6C5C2",
"(	c #D0CECC",
"_	c #D2D1CE",
":	c #D8D7D5",
"                        ",
"                        ",
"                        ",
"        .+              ",
"        .@+             ",
"        .@@+            ",
"        .@.@+           ",
"        .@#$@+          ",
"        .@#+#@+         ",
"        .@%&*=@+        ",
"        .@%-;;>@+       ",
"        .@,>'))!@~      ",
"        .@{]^/(@~       ",
"        .@{;/_@~        ",
"        .@&':@~         ",
"        .@-/@~          ",
"        .@>@~           ",
"        .@@~            ",
"        .@~             ",
"        +~              ",
"                        ",
"                        ",
"                        ",
"                        "};
