/* XPM */
static char * screenshot_xpm[] = {
"24 24 163 2",
"  	g None",
". 	g #FEFEFE",
"+ 	g #FCFCFC",
"@ 	g #FFFFFF",
"# 	g #FDFDFD",
"$ 	g #FBFBFB",
"% 	g #FAFAFA",
"& 	g #F8F8F8",
"* 	g #F9F9F9",
"= 	g #F1F1F1",
"- 	g #DDDDDD",
"; 	g #E3E3E3",
"> 	g #8A8A8A",
", 	g #585858",
"' 	g #565656",
") 	g #626262",
"! 	g #D3D3D3",
"~ 	g #E0E0E0",
"{ 	g #F6F6F6",
"] 	g #DEDEDE",
"^ 	g #DADADA",
"/ 	g #E5E5E5",
"( 	g #E6E6E6",
"_ 	g #4A4A4A",
": 	g #393939",
"< 	g #3A3A3A",
"[ 	g #313131",
"} 	g #1A1A1A",
"| 	g #2B2B2B",
"1 	g #292929",
"2 	g #9E9E9E",
"3 	g #A7A7A7",
"4 	g #A6A6A6",
"5 	g #A5A5A5",
"6 	g #373737",
"7 	g #2E2E2E",
"8 	g #2D2D2D",
"9 	g #4F4F4F",
"0 	g #272727",
"a 	g #E7E7E7",
"b 	g #EBEBEB",
"c 	g #8E8E8E",
"d 	g #898989",
"e 	g #121212",
"f 	g #3F3F3F",
"g 	g #141414",
"h 	g #222222",
"i 	g #727272",
"j 	g #A4A4A4",
"k 	g #7D7D7D",
"l 	g #636363",
"m 	g #7E7E7E",
"n 	g #1B1B1B",
"o 	g #949494",
"p 	g #878787",
"q 	g #D2D2D2",
"r 	g #808080",
"s 	g #363636",
"t 	g #434343",
"u 	g #757575",
"v 	g #858585",
"w 	g #848484",
"x 	g #6B6B6B",
"y 	g #484848",
"z 	g #5B5B5B",
"A 	g #6E6E6E",
"B 	g #5E5E5E",
"C 	g #676767",
"D 	g #5F5F5F",
"E 	g #888888",
"F 	g #868686",
"G 	g #444444",
"H 	g #3C3C3C",
"I 	g #575757",
"J 	g #818181",
"K 	g #323232",
"L 	g #464646",
"M 	g #595959",
"N 	g #010101",
"O 	g #020202",
"P 	g #505050",
"Q 	g #D7D7D7",
"R 	g #747474",
"S 	g #2F2F2F",
"T 	g #2C2C2C",
"U 	g #5A5A5A",
"V 	g #BEBEBE",
"W 	g #050505",
"X 	g #5C5C5C",
"Y 	g #515151",
"Z 	g #E2E2E2",
"` 	g #7F7F7F",
" .	g #1C1C1C",
"..	g #4C4C4C",
"+.	g #4E4E4E",
"@.	g #242424",
"#.	g #0F0F0F",
"$.	g #0E0E0E",
"%.	g #1E1E1E",
"&.	g #696969",
"*.	g #737373",
"=.	g #000000",
"-.	g #333333",
";.	g #666666",
">.	g #D0D0D0",
",.	g #E9E9E9",
"'.	g #353535",
").	g #4D4D4D",
"!.	g #414141",
"~.	g #535353",
"{.	g #060606",
"].	g #030303",
"^.	g #262626",
"/.	g #3B3B3B",
"(.	g #ECECEC",
"_.	g #303030",
":.	g #040404",
"<.	g #424242",
"[.	g #232323",
"}.	g #EDEDED",
"|.	g #343434",
"1.	g #202020",
"2.	g #080808",
"3.	g #646464",
"4.	g #D6D6D6",
"5.	g #EEEEEE",
"6.	g #606060",
"7.	g #525252",
"8.	g #282828",
"9.	g #1D1D1D",
"0.	g #0D0D0D",
"a.	g #111111",
"b.	g #B8B8B8",
"c.	g #7A7A7A",
"d.	g #ACACAC",
"e.	g #151515",
"f.	g #0C0C0C",
"g.	g #0B0B0B",
"h.	g #999999",
"i.	g #C3C3C3",
"j.	g #C1C1C1",
"k.	g #959595",
"l.	g #9D9D9D",
"m.	g #9F9F9F",
"n.	g #A2A2A2",
"o.	g #A0A0A0",
"p.	g #BFBFBF",
"q.	g #B5B5B5",
"r.	g #D9D9D9",
"s.	g #F7F7F7",
"t.	g #828282",
"u.	g #2A2A2A",
"v.	g #454545",
"w.	g #B2B2B2",
"x.	g #BABABA",
"y.	g #EFEFEF",
"z.	g #F5F5F5",
"A.	g #6A6A6A",
"B.	g #474747",
"C.	g #9A9A9A",
"D.	g #A9A9A9",
"E.	g #F3F3F3",
"F.	g #F2F2F2",
"                                                ",
"                                                ",
"                                                ",
"                                                ",
". . + . @ . . . # . . @ @ @ . + $ % . . # . . @ ",
". . @ # . . # # $ # . @ @ @ # # # . + . . # # @ ",
". # # & $ * = - ; > , ' ' ' ) ! ~ { ] ^ / $ . @ ",
"# + ( _ : < [ } | 1 2 3 4 5 6 7 8 9 0 1 < a + # ",
"b c d e < f g 9 h i & # . + j 0 k l l m n o p q ",
"r s t u v w v x y l z x A B C y D > v E F G H I ",
"J K L M N N O P Q R S T S T U V m W O O < X f Y ",
"Z `  ...N N N +.w 0 @.#.$.%.@.&.*.O =.N -.K ;.>.",
"# ,.'.).O =.N !.~.S W {.O ].^.: M N =.N -./.! # ",
". (._.).N O :.f <.8 ].].O O [.K ~.:.=.N -.H Q + ",
". }.|.).O 1.K G U T 2.O O ].1 <.3.1.O N -./.4.. ",
". 5.K ).].[.6.7.5 8 8.%.9.^.0 J m < N O 6 /.Q . ",
"@ 5.K I 0.a.T _ b.c.0 _.[ 1 B d.A e.f.g.f < Q . ",
". }.'.h.i.i.j.u k.5 l.j 5 m.n.o.x p.i.i.q.8 r.+ ",
". s.t.u., X U v.' w.V p.p.p.x.i /.z U z s D y.# ",
". # z.w.2 l.l.2 A.G B.L L L t ) C.l.m.l.D.b # # ",
". . @ # . . + # { = E.z.z.z.F.{ # # . # # # # # ",
"                                                ",
"                                                ",
"                                                "};
