/* XPM */
static char * showchannames_xpm[] = {
"24 24 11 1",
" 	c None",
".	c #AAAAAA",
"+	c #000000",
"@	c #E3E3E3",
"#	c #727272",
"$	c #555555",
"%	c #C7C7C7",
"&	c #8E8E8E",
"*	c #1D1D1D",
"=	c #FFFFFF",
"-	c #393939",
"                        ",
"       .                ",
"       +                ",
"   @#$@+#$@%$$@%&%& &   ",
"   $.%@+@..*@@#@*.$&&   ",
"   %#*%+ ..+==$ -.&$%   ",
"   $#-%+ ..$##. %$.-    ",
"   @.@ . @@ ..   %@@    ",
"                        ",
"       %@               ",
"       $.               ",
"   @#$.$$$..##. $#$@    ",
"   #&=%$& $%@&$ +@..    ",
"   $.==$. $#$.$ + ..    ",
"   .-.$$. $$&%- + ..    ",
"    %.@%@ %@.@% . @@    ",
"                        ",
"                        ",
"&#$..##. $#$&$& &$. &$. ",
"$& $%@&$ +@.& +.$=$.$@% ",
"$. $#$.$ + .. +.-..@&-# ",
"$. $$&%- + .. +%+.-.-## ",
"%@ %@.@% . @@ . @.@ .%  ",
"                        "};
