/* XPM */
static char *sourcecode_16_xpm[] = {
/* columns rows colors chars-per-pixel */
"16 16 10 1",
"  c opaque",
". c #6e6e6e",
"X c #717171",
"o c #bcbcbc",
"O c #c1c1c1",
"+ c #e4e4e4",
"@ c #ececec",
"# c #f3f3f3",
"$ c #f9f9f9",
"% c None",
/* pixels */
"                ",
" o####$##$##$$o ",
" #++++++@@@@@@@ ",
" #+......@@@@@# ",
" #++++@@@@@@##@ ",
" #+.....@@#@#@# ",
" #++@@@@@@@#### ",
" $@........#### ",
" #+@@@@@####### ",
" #@..X.@#@####$ ",
" $@@#@#######$$ ",
" $#XX.XX.##$$$$ ",
" $@#@####$$$$$$ ",
" o#@#####$$$$$O ",
"                ",
"%%%%%%%%%%%%%%%%"
};
