/* XPM */
static char * addFile_xpm[] = {
"24 24 86 1",
" 	c None",
".	c #000000",
"+	c #ADAD9C",
"@	c #959585",
"#	c #DCDCC5",
"$	c #DFDFC8",
"%	c #242424",
"&	c #A7A796",
"*	c #D7D7C1",
"=	c #D9D9C3",
"-	c #DCDCC4",
";	c #DDDDC7",
">	c #E1E1CA",
",	c #A6A694",
"'	c #D6D6BF",
")	c #D8D8C2",
"!	c #DBDBC4",
"~	c #DFDFC7",
"{	c #E3E3CB",
"]	c #B2B29F",
"^	c #7C7C7C",
"/	c #646464",
"(	c #D5D5BD",
"_	c #D5D5BF",
":	c #D7D7C0",
"<	c #E1E1C9",
"[	c #E5E5CD",
"}	c #E9E9D1",
"|	c #343434",
"1	c #E7E7E7",
"2	c #373736",
"3	c #B8B8A6",
"4	c #D3D3BC",
"5	c #DDDDC5",
"6	c #E0E0C8",
"7	c #E8E8D0",
"8	c #ECECD4",
"9	c #EEEED5",
"0	c #ECECEC",
"a	c #EDEDED",
"b	c #3D3D37",
"c	c #CECEB7",
"d	c #E6E6CE",
"e	c #EAEAD2",
"f	c #F1F1D8",
"g	c #A5A594",
"h	c #EEEEE5",
"i	c #3C3C3C",
"j	c #8F8F80",
"k	c #D0D0B9",
"l	c #E4E4CB",
"m	c #EAEAD1",
"n	c #EFEFD6",
"o	c #F2F2D9",
"p	c #F3F3DA",
"q	c #EEEEE6",
"r	c #505050",
"s	c #929282",
"t	c #D1D1B9",
"u	c #003200",
"v	c #969686",
"w	c #D2D2BC",
"x	c #E0E0C9",
"y	c #EDEDD4",
"z	c #F0F0D7",
"A	c #00C800",
"B	c #BEBEAB",
"C	c #797973",
"D	c #D8D8C1",
"E	c #D9D9C2",
"F	c #E7E7CF",
"G	c #F5F5DC",
"H	c #98988F",
"I	c #E4E4CC",
"J	c #EBEBD2",
"K	c #818174",
"L	c #E2E2CA",
"M	c #ECECD3",
"N	c #BEBEAE",
"O	c #4E4E4E",
"P	c #EBEBD3",
"Q	c #DADAC3",
"R	c #BBBBA8",
"S	c #CDCDB8",
"T	c #4D4D45",
"U	c #A6A696",
"                        ",
"                        ",
"             .          ",
"           ..+.         ",
"         ..@#$%         ",
"       ..&*=-;>.        ",
"     ..,'**)!~{].       ",
"    .^/'(_:^^<[}|       ",
"    .1234*^56[789.      ",
"    .0abc^!6d7e9fg.     ",
"    .hhijk6lm^nfop.     ",
"    .qrst-<^^9fpuuu.    ",
"    ..vw!x^^yzp^uAuB.   ",
"    .CDE^^Fm9fp^uAuG).  ",
"    .H!^$IFJ9^^GuAuGK.  ",
"     .~6L[}MuuuuuAuuuuu ",
"     .N[[7^^uAAAAAAAAAu ",
"      O7}^^nuuuuuAuuuuu ",
"      .P8ynfooQ.uAu     ",
"       .nzfo}g. uAu     ",
"       .RopST.  uAu     ",
"        .pU.    uuu     ",
"         ..             ",
"                        "};
