/* XPM */
static char * balsa_xpm[] = {
"16 16 3 1",
" 	c None",
".	c #C6A977",
"+	c #EAD656",
".+...+....+.++..",
"..++..++...+.++.",
"...+..+++..++.++",
"..++....++..++.+",
"..+......+++.++.",
"..+++++++..++.++",
"..++++..+++.+..+",
"..+.+++...+.++..",
"..++.+++..+..+..",
"...+....+.+..+..",
"+..++....++..+..",
".+..+++...+..++.",
"..+..+++......++",
"..++....+++.....",
"+..+++....+++...",
"++...++.....++.."};
