/* XPM */
static char * balsa_block_with_exclamation_xpm[] = {
"32 16 5 1",
" 	c None",
".	c #EDE187",
"+	c #FF0000",
"@	c #C4C258",
"#	c #F9F50C",
"       .                        ",
"     .....              +       ",
"   ..........          +++      ",
"................       +++      ",
"@@@..........###       +++      ",
"@@@@@.....######       +++      ",
"@@@@@@@.########       +++      ",
"@@@@@@@#########       +++      ",
"@@@@@@@#########       +++      ",
"@@@@@@@#########        +       ",
"@@@@@@@#########                ",
"@@@@@@@#########        +       ",
"@@@@@@@#########       +++      ",
"  @@@@@######           +       ",
"     @@###                      ",
"       #                        "};
