/* XPM */
static char * breeze_block_xpm[] = {
"16 16 4 1",
" 	c None",
".	c #A0A0A0",
"+	c #7B7B7B",
"@	c #CCCCCC",
"       .        ",
"     .....      ",
"   ..........   ",
"................",
"+++..........@@@",
"+++++.....@@@@@@",
"+++++++.@@@@@@@@",
"+++++++@@@@@@@@@",
"+++++++@@@@@@@@@",
"+++++++@@@@@@@@@",
"+++++++@@@@@@@@@",
"+++++++@@@@@@@@@",
"+++++++@@@@@@@@@",
"  +++++@@@@@@   ",
"     ++@@@      ",
"       @        "};
