/* XPM */
static char * builtin_lib_xpm[] = {
"16 16 4 1",
" 	c None",
".	c #000000",
"+	c #8488D8",
"@	c #CBD8B1",
"                ",
"                ",
"                ",
"  @      @      ",
"  @    @ @      ",
"  @      @      ",
"  @      @      ",
"  @    @ @@@@   ",
"  @    @ @   @  ",
"  @    @ @   @  ",
"  @@@@ @ @@@@   ",
"                ",
"                ",
"                ",
"                ",
"                "};
