/* XPM */
static char * directory_xpm[] = {
"16 16 32 1",
" 	c None",
".	c #ADADAD",
"+	c #C7C7C7",
"@	c #B6B6B6",
"#	c #DCDCDC",
"$	c #EDEDED",
"%	c #989898",
"&	c #D7D7D7",
"*	c #D6D6D6",
"=	c #DFDFDF",
"-	c #DBDBDB",
";	c #AAAAAA",
">	c #D9D9D9",
",	c #DEDEDE",
"'	c #CECECE",
")	c #D8D8D8",
"!	c #EFEFEF",
"~	c #666666",
"{	c #C9C9C9",
"]	c #515151",
"^	c #222222",
"/	c #D3D3D3",
"(	c #C1C1C1",
"_	c #5C5C5C",
":	c #1B1B1B",
"<	c #A6A6A6",
"[	c #7A7A7A",
"}	c #000000",
"|	c #C0C0C0",
"1	c #5B5B5B",
"2	c #1E1E1E",
"3	c #2A2A2A",
"                ",
"                ",
"                ",
"  .+            ",
"  @#$%          ",
"  @&*=-;        ",
"  @&***>,'      ",
"  @&*****)!~    ",
"  @&*****{]^    ",
"  @&**/(_:      ",
"  @&*<[}        ",
"  @|12          ",
"  .3            ",
"                ",
"                ",
"                "};
