/* XPM */
static char * edit_xpm[] = {
"22 22 193 2",
"  	c None",
". 	c #3A0503",
"+ 	c #2B0000",
"@ 	c #0F0000",
"# 	c #89663B",
"$ 	c #963B13",
"% 	c #590A00",
"& 	c #1F0000",
"* 	c #8F6B3F",
"= 	c #EBAD58",
"- 	c #D27E16",
"; 	c #622400",
"> 	c #130100",
", 	c #000000",
"' 	c #8A693F",
") 	c #EAA853",
"! 	c #E6931F",
"~ 	c #7B5402",
"{ 	c #1C1800",
"] 	c #8C6B40",
"^ 	c #E4A34D",
"/ 	c #DB8D1D",
"( 	c #7E5603",
"_ 	c #1E1800",
": 	c #020202",
"< 	c #2A2A2A",
"[ 	c #343434",
"} 	c #1C1C1C",
"| 	c #1A130B",
"1 	c #906C3F",
"2 	c #EBA953",
"3 	c #DD8E1E",
"4 	c #795300",
"5 	c #070707",
"6 	c #040404",
"7 	c #5E5E5E",
"8 	c #747474",
"9 	c #A9A9A9",
"0 	c #A4A4A4",
"a 	c #4D4741",
"b 	c #896439",
"c 	c #EEB25E",
"d 	c #E7921D",
"e 	c #815802",
"f 	c #1C1700",
"g 	c #010101",
"h 	c #161616",
"i 	c #525252",
"j 	c #858585",
"k 	c #D5D5D5",
"l 	c #D7D7D7",
"m 	c #A2A09E",
"n 	c #876C4A",
"o 	c #D6AB65",
"p 	c #DF8510",
"q 	c #7B5502",
"r 	c #1B1600",
"s 	c #1A1A1A",
"t 	c #464646",
"u 	c #7E7E7E",
"v 	c #B7B7B7",
"w 	c #CBCBCB",
"x 	c #DBDBDB",
"y 	c #E1E1E1",
"z 	c #CACACA",
"A 	c #828178",
"B 	c #8D8A69",
"C 	c #9E905A",
"D 	c #906B13",
"E 	c #59573F",
"F 	c #3B3B3A",
"G 	c #121212",
"H 	c #323232",
"I 	c #9B9B9B",
"J 	c #979797",
"K 	c #C4C4C4",
"L 	c #D6D6D6",
"M 	c #DDDDDD",
"N 	c #DADADA",
"O 	c #ADADAD",
"P 	c #CCCCCC",
"Q 	c #23231D",
"R 	c #858569",
"S 	c #595943",
"T 	c #545445",
"U 	c #A6A6A6",
"V 	c #CECECE",
"W 	c #AEAEAE",
"X 	c #555555",
"Y 	c #141414",
"Z 	c #090909",
"` 	c #6A6A6A",
" .	c #8B8B8B",
"..	c #ACACAC",
"+.	c #D3D3D3",
"@.	c #C1C1C1",
"#.	c #B9B9B9",
"$.	c #E4E4E4",
"%.	c #404040",
"&.	c #2F2F2F",
"*.	c #959595",
"=.	c #E6E6E6",
"-.	c #DCDCDC",
";.	c #E2E2E2",
">.	c #8E8E8E",
",.	c #0D0D0D",
"'.	c #4C4C4C",
").	c #707070",
"!.	c #919191",
"~.	c #ABABAB",
"{.	c #BABABA",
"].	c #DEDEDE",
"^.	c #D2D2D2",
"/.	c #C9C9C9",
"(.	c #989898",
"_.	c #4F4F4F",
":.	c #B2B2B2",
"<.	c #E3E3E3",
"[.	c #E0E0E0",
"}.	c #CDCDCD",
"|.	c #AAAAAA",
"1.	c #8F8F8F",
"2.	c #6D6D6D",
"3.	c #101010",
"4.	c #060707",
"5.	c #2C3535",
"6.	c #4A5757",
"7.	c #686C6C",
"8.	c #6F7070",
"9.	c #C6C6C6",
"0.	c #BCBCBC",
"a.	c #D0D0D0",
"b.	c #616161",
"c.	c #8C8D8D",
"d.	c #838787",
"e.	c #687272",
"f.	c #414D4D",
"g.	c #090B0B",
"h.	c #000101",
"i.	c #001010",
"j.	c #092424",
"k.	c #2E4343",
"l.	c #485858",
"m.	c #5E6565",
"n.	c #797979",
"o.	c #888888",
"p.	c #C8C8C8",
"q.	c #A5A5A5",
"r.	c #3A3A3A",
"s.	c #4B4B4B",
"t.	c #5D5D5D",
"u.	c #727777",
"v.	c #6A7777",
"w.	c #3E5252",
"x.	c #132C2C",
"y.	c #021818",
"z.	c #000303",
"A.	c #000404",
"B.	c #031515",
"C.	c #0F2525",
"D.	c #2B4343",
"E.	c #4B5C5C",
"F.	c #6C7070",
"G.	c #909090",
"H.	c #999999",
"I.	c #B3B3B3",
"J.	c #626363",
"K.	c #566262",
"L.	c #395151",
"M.	c #1A3131",
"N.	c #061919",
"O.	c #000808",
"P.	c #041111",
"Q.	c #122828",
"R.	c #26334F",
"S.	c #5B5D76",
"T.	c #7A7A85",
"U.	c #939393",
"V.	c #7E7E83",
"W.	c #515464",
"X.	c #2F4549",
"Y.	c #193131",
"Z.	c #061616",
"`.	c #000515",
" +	c #10113F",
".+	c #303061",
"++	c #52527C",
"@+	c #41416E",
"#+	c #131543",
"$+	c #04101A",
"%+	c #04041E",
"&+	c #0A0A31",
"*+	c #070727",
"                                            ",
"                                            ",
"                                      . + @ ",
"                                    # $ % & ",
"                                  * = - ; > ",
"                  , ,           ' ) ! ~ {   ",
"                ,   ,         ] ^ / ( _     ",
"              , : < [ } , | 1 2 3 4 _       ",
"      ,   , 5 6 7 8 9 0 a b c d e f         ",
"  ,   g   h i j 9 k l m n o p q r           ",
",   g s t u v w x y z A B C D E F G         ",
"  h H I J K L M N O P Q R S T U V W X Y     ",
"Z `  ...+.+.L @.#.$.l %.&.*.w =.-.;.L >.Y   ",
",.'.).!.~.{.K +.].^./.(._.:.<.[.}.|.1.2.3.  ",
"4.5.6.7.8.1.{.9./.0.a.0 H b.{...c.d.e.f.g.  ",
"h.i.j.k.l.m.n.o.J p.[.q.r.s.t.u.v.w.x.y.z.  ",
"    A.B.C.D.E.F.G.H.I.G.t.J.K.L.M.N.O.      ",
"          P.Q.R.S.T.U.V.W.X.Y.Z.            ",
"              `. +.+++@+#+$+                ",
"                  %+&+*+                    ",
"                                            ",
"                                            "};
