/* XPM */
static char * edit2_xpm[] = {
"24 24 197 2",
"  	c None",
". 	c #271102",
"+ 	c #6E3D17",
"@ 	c #EDA870",
"# 	c #C6997E",
"$ 	c #7C4519",
"% 	c #FCBE84",
"& 	c #F08B2E",
"* 	c #EB995C",
"= 	c #8A593C",
"- 	c #844919",
"; 	c #FEBF84",
"> 	c #FD962E",
", 	c #DF6B04",
"' 	c #723304",
") 	c #8C4D19",
"! 	c #FE992E",
"~ 	c #E57004",
"{ 	c #773504",
"] 	c #686868",
"^ 	c #E57204",
"/ 	c #515152",
"( 	c #010102",
"_ 	c #BDBDBA",
": 	c #FC962E",
"< 	c #E57104",
"[ 	c #7F7F7F",
"} 	c #7C7A70",
"| 	c #F8F8EA",
"1 	c #D2D1C6",
"2 	c #F6F4E4",
"3 	c #53534E",
"4 	c #884917",
"5 	c #F6912E",
"6 	c #E16F04",
"7 	c #515153",
"8 	c #7A7A70",
"9 	c #F5F4E0",
"0 	c #F6F4DE",
"a 	c #CDCDBE",
"b 	c #ADACA0",
"c 	c #946340",
"d 	c #EFAE7A",
"e 	c #EF8324",
"f 	c #D96704",
"g 	c #808080",
"h 	c #92928A",
"i 	c #F8F7E4",
"j 	c #F3F2D6",
"k 	c #F3F2D8",
"l 	c #CFCFBC",
"m 	c #AEAE9E",
"n 	c #D1D1BA",
"o 	c #D1C5A8",
"p 	c #EBC0B0",
"q 	c #EDAE82",
"r 	c #C76E30",
"s 	c #6F3406",
"t 	c #685D4A",
"u 	c #8F8F7C",
"v 	c #F5F5DA",
"w 	c #F2F1CE",
"x 	c #EBEAC6",
"y 	c #C2C1AA",
"z 	c #A5A490",
"A 	c #D0CEAE",
"B 	c #F4F2D0",
"C 	c #D0CFB0",
"D 	c #C19C86",
"E 	c #EDBDA2",
"F 	c #B47254",
"G 	c #804A30",
"H 	c #7B705C",
"I 	c #CBCAAC",
"J 	c #F2F0C8",
"K 	c #535246",
"L 	c #3A270E",
"M 	c #7B7B7A",
"N 	c #E7E6CA",
"O 	c #C9C8A6",
"P 	c #A4A38C",
"Q 	c #D4D3B0",
"R 	c #F2F1C8",
"S 	c #D0CFAE",
"T 	c #B0AE94",
"U 	c #CBC9A2",
"V 	c #8F7364",
"W 	c #98624A",
"X 	c #896F5A",
"Y 	c #C6C4A0",
"Z 	c #EFECBE",
"` 	c #CDCCAA",
" .	c #AAAA8C",
"..	c #CAC9A2",
"+.	c #F0EEBC",
"@.	c #3D3D3C",
"#.	c #514228",
"$.	c #714D1A",
"%.	c #635138",
"&.	c #7D7C6E",
"*.	c #EEEDBC",
"=.	c #CFCEA4",
"-.	c #A6A488",
";.	c #CAC9A0",
">.	c #EFEEBC",
",.	c #CCCBA2",
"'.	c #6B6A56",
").	c #C3C198",
"!.	c #EEECB6",
"~.	c #CCCBA0",
"{.	c #A7A788",
"].	c #C2C09A",
"^.	c #EBE8B4",
"/.	c #C6BB96",
"(.	c #846746",
"_.	c #3F2C14",
":.	c #4F4328",
"<.	c #89703E",
"[.	c #7D602E",
"}.	c #735320",
"|.	c #5C5446",
"1.	c #CAC89E",
"2.	c #EBE9B0",
"3.	c #CCCB9E",
"4.	c #ADAC8A",
"5.	c #C7C598",
"6.	c #7A7A6C",
"7.	c #8A8972",
"8.	c #9E9D7E",
"9.	c #D0CF9C",
"0.	c #E9E7AA",
"a.	c #C8BC92",
"b.	c #866B48",
"c.	c #7B5C2C",
"d.	c #97844E",
"e.	c #615732",
"f.	c #1B1710",
"g.	c #3F321C",
"h.	c #836C3A",
"i.	c #89713E",
"j.	c #7E612E",
"k.	c #6C542C",
"l.	c #C8C796",
"m.	c #EDEBA8",
"n.	c #CBC896",
"o.	c #5F5E56",
"p.	c #6C6C60",
"q.	c #97967A",
"r.	c #BFB384",
"s.	c #7E6340",
"t.	c #755626",
"u.	c #917D44",
"v.	c #9B8A52",
"w.	c #836B38",
"x.	c #261C0E",
"y.	c #020204",
"z.	c #3F3E28",
"A.	c #846C3C",
"B.	c #7D5F2E",
"C.	c #66563A",
"D.	c #81806A",
"E.	c #C5C48C",
"F.	c #B2B08A",
"G.	c #746B56",
"H.	c #6D5232",
"I.	c #785B2A",
"J.	c #95814A",
"K.	c #968954",
"L.	c #816936",
"M.	c #463416",
"N.	c #191104",
"O.	c #020506",
"P.	c #3F402A",
"Q.	c #866D3C",
"R.	c #897040",
"S.	c #7E5F2C",
"T.	c #593C1A",
"U.	c #5B320A",
"V.	c #76592A",
"W.	c #927F4A",
"X.	c #9E8F58",
"Y.	c #826834",
"Z.	c #292010",
"`.	c #020202",
" +	c #221E12",
".+	c #5D4926",
"++	c #856C38",
"@+	c #65593E",
"#+	c #8F7A44",
"$+	c #978652",
"%+	c #6E5F34",
"&+	c #453012",
"*+	c #0B0702",
"=+	c #3D2E18",
"-+	c #403938",
";+	c #4B444A",
">+	c #0B091A",
"                                                ",
"                                                ",
"                                        .       ",
"                                      + @ #     ",
"                                    $ % & * =   ",
"                                  - ; > , '     ",
"                                ) ; ! ~ {       ",
"                  ]           ) ; ! ^ {         ",
"                / ( _ (     ) ; : < {           ",
"            / [ } | 1 2 3 4 % 5 6 {             ",
"    ]   7 [ 8 9 9 0 a b c d e f {               ",
"  /   g h i j k l m n o p q r s t (             ",
"  ( u v w x y z A B C D E F G H I J K (         ",
"  L M N O P Q R S T U V W X Y Z `  ...+.@.      ",
"  #.$.%.&.*.=.-.;.>.,.'.).!.~.{.].^./.(._.      ",
"  :.<.[.}.|.1.2.3.4.5.6.7.8.9.0.a.b.c.d.e.      ",
"  f.g.h.i.j.k.|.l.m.n.o.p.q.r.s.t.u.v.w.x.      ",
"    ( y.z.A.<.B.C.D.E.F.G.H.I.J.K.L.M.N.        ",
"        ( O.P.Q.R.S.T.U.V.W.X.Y.Z.`.            ",
"            (  +.+++@+#+$+%+&+*+                ",
"                ( =+-+;+>+(                     ",
"                    ( (                         ",
"                                                ",
"                                                "};
