/* XPM */
static char * input_file_port_xpm[] = {
"32 16 4 1",
" 	c None",
".	c #000000",
"+	c #FFFFFF",
"@	c #CCCCCC",
"..                ........      ",
"..                .+++++.+.     ",
"..                .+@@+@.++.    ",
"..                .+++++.+++.   ",
"..  ...           .+@@+@.....   ",
".. .@@@.    ..    .+++++++++.   ",
"...@@@@@. ....    .+@@+@@@@+.   ",
"...@@@@@...........+++++++++.   ",
"...@@@@@. ....    .+@@+@@@@+.   ",
".. .@@@.    ..    .+++++++++.   ",
"..  ...           .+@@+@@@@+.   ",
"..                .+++++++++.   ",
"..                .+@@+@@@@+.   ",
"..                .+++++++++.   ",
"..                ...........   ",
"                                "};
