/* XPM */
static char * input_value_port_xpm[] = {
"32 16 4 1",
" 	c None",
".	c #000000",
"+	c #FFFFFF",
"@	c #CCCCCC",
"..                ........      ",
"..                .+++++.+.     ",
"..                .+++++.++.    ",
"..                .+++++.+++.   ",
"..  ...           .+++++.....   ",
".. .@@@.    ..    .+++++++++.   ",
"...@@@@@. ....    .+++...+++.   ",
"...@@@@@...........++.+++.++.   ",
"...@@@@@. ....    .++.++..++.   ",
".. .@@@.    ..    .++.+.+.++.   ",
"..  ...           .++..++.++.   ",
"..                .++.+++.++.   ",
"..                .+++...+++.   ",
"..                .+++++++++.   ",
"..                ...........   ",
"                                "};
