/* XPM */
static char * lard_block_xpm[] = {
"20 16 5 1",
" 	c None",
".	c #BDBDBD",
"+	c #FFFFFF",
"@	c #8A8A8A",
"#	c #FF0000",
"   .....            ",
"............        ",
"+++..............   ",
"+++++++...........@@",
"+#+++++++++.....@@@@",
"+#+###+++++++++@@@@@",
"+#+#+#+##++++++@@@@@",
"+#+#+#+#+#+##++@@@@@",
"+#+###+#+#+#+#+@@@@@",
"+#+#+#+##++#+#+@@@@@",
"+###+#+#+#+#+#+@@@@@",
"+++++#+#+#+#+#+@@@@@",
"+++++++#+#+#+#+@@@@@",
"   ++++++++##++@@@@@",
"       ++++++++@@@  ",
"           ++++@    "};
