/* XPM */
static char * options_xpm[] = {
"22 22 180 2",
"  	c None",
". 	c #0F0E0D",
"+ 	c #111010",
"@ 	c #141312",
"# 	c #605E58",
"$ 	c #BEBAB3",
"% 	c #A29F97",
"& 	c #32312E",
"* 	c #000000",
"= 	c #6C6A66",
"- 	c #C3C0BA",
"; 	c #C1BDB4",
"> 	c #100F0F",
", 	c #393939",
"' 	c #2E2E2E",
") 	c #0E0E0E",
"! 	c #B4B3B1",
"~ 	c #CFCCC5",
"{ 	c #454545",
"] 	c #BBBBBB",
"^ 	c #A6A6A6",
"/ 	c #1B1B1B",
"( 	c #2F2F2D",
"_ 	c #444341",
": 	c #565656",
"< 	c #D1D1D0",
"[ 	c #CBC8C0",
"} 	c #383734",
"| 	c #8C8C8C",
"1 	c #D0D0D0",
"2 	c #7D7D7D",
"3 	c #171717",
"4 	c #474644",
"5 	c #AEABA5",
"6 	c #797772",
"7 	c #6F6E6B",
"8 	c #B8B7B6",
"9 	c #D6D4CF",
"0 	c #BEBAB0",
"a 	c #A19D95",
"b 	c #4F4F4F",
"c 	c #727272",
"d 	c #5F5F5F",
"e 	c #1F1F1F",
"f 	c #252423",
"g 	c #787571",
"h 	c #BCB8B1",
"i 	c #D1CDC7",
"j 	c #DAD7D2",
"k 	c #D1CDC6",
"l 	c #CCC8C1",
"m 	c #BCB7AD",
"n 	c #4C4A46",
"o 	c #505050",
"p 	c #787878",
"q 	c #383838",
"r 	c #252422",
"s 	c #44423F",
"t 	c #42413F",
"u 	c #434240",
"v 	c #4A4947",
"w 	c #CCCBC7",
"x 	c #E2DFDB",
"y 	c #AAA79F",
"z 	c #504E4A",
"A 	c #3B3B3B",
"B 	c #737373",
"C 	c #363636",
"D 	c #363635",
"E 	c #E2E1E0",
"F 	c #E5E3E0",
"G 	c #9B9892",
"H 	c #212121",
"I 	c #686868",
"J 	c #282828",
"K 	c #272727",
"L 	c #DCDCDB",
"M 	c #353433",
"N 	c #757575",
"O 	c #131313",
"P 	c #888888",
"Q 	c #232221",
"R 	c #595752",
"S 	c #2E2D2A",
"T 	c #090C0E",
"U 	c #0D0F11",
"V 	c #0C0E10",
"W 	c #010101",
"X 	c #949494",
"Y 	c #717070",
"Z 	c #81807E",
"` 	c #85827D",
" .	c #45433F",
"..	c #080807",
"+.	c #11151A",
"@.	c #5F7184",
"#.	c #9CB1C8",
"$.	c #95ABC3",
"%.	c #1B2127",
"&.	c #242424",
"*.	c #9A9999",
"=.	c #C3C1BE",
"-.	c #AAA69F",
";.	c #4A4845",
">.	c #0C0C0B",
",.	c #1A1F24",
"'.	c #607082",
").	c #B0C0D0",
"!.	c #9EACBC",
"~.	c #9BB3CA",
"{.	c #677F99",
"].	c #414141",
"^.	c #C6C6C6",
"/.	c #E1E0DC",
"(.	c #B2AEA8",
"_.	c #4A4844",
":.	c #0D0D0C",
"<.	c #23272C",
"[.	c #6B7785",
"}.	c #B0C0D1",
"|.	c #909EAE",
"1.	c #788EA5",
"2.	c #8BA6C1",
"3.	c #627993",
"4.	c #4E4E4E",
"5.	c #C8C8C7",
"6.	c #E1DFDC",
"7.	c #A9A6A1",
"8.	c #41403D",
"9.	c #090908",
"0.	c #24292D",
"a.	c #76808B",
"b.	c #BAC7D5",
"c.	c #90A0B4",
"d.	c #748AA2",
"e.	c #86A1BB",
"f.	c #7089A5",
"g.	c #3A4756",
"h.	c #555555",
"i.	c #C2C1C0",
"j.	c #AFAEAD",
"k.	c #4D4D4C",
"l.	c #080808",
"m.	c #1D2126",
"n.	c #737E8A",
"o.	c #C6D1DC",
"p.	c #9AA8B9",
"q.	c #798FA8",
"r.	c #86A0BB",
"s.	c #374553",
"t.	c #050708",
"u.	c #4E4E4D",
"v.	c #8D8C8B",
"w.	c #848483",
"x.	c #A5A5A5",
"y.	c #292E34",
"z.	c #BCCCDC",
"A.	c #C5CCD4",
"B.	c #8799AC",
"C.	c #859FBA",
"D.	c #708AA5",
"E.	c #364351",
"F.	c #080A0C",
"G.	c #3F3F3E",
"H.	c #494949",
"I.	c #484847",
"J.	c #090909",
"K.	c #21272D",
"L.	c #94ABC2",
"M.	c #B2C4D5",
"N.	c #A0B3C6",
"O.	c #7890A9",
"P.	c #354250",
"Q.	c #0C0E11",
"R.	c #3A4755",
"S.	c #7C94AF",
"T.	c #788FA8",
"U.	c #3B4856",
"V.	c #0A0C0F",
"W.	c #12161B",
"            . + @                           ",
"            # $ % &                         ",
"            * = - ; >               , '     ",
"              ) ! ~ +             { ] ^ /   ",
"      ( _     : < [ }           * | 1 2 3   ",
"      4 5 6 7 8 9 0 a *         b c d e     ",
"      f g h i j k l m n *     o p q *       ",
"        r s t u v w x y z * A B C           ",
"                  D E F G H I J             ",
"                    K L M N O *             ",
"                      e P Q R S *           ",
"              T U V W X O Y Z `  ...        ",
"            +.@.#.$.%.*   &.*.=.-.;.>.      ",
"          ,.'.).!.~.{.*     ].^./.(._.:.    ",
"        <.[.}.|.1.2.3.*       4.5.6.7.8.9.  ",
"      0.a.b.c.d.e.f.g.*         h.i.j.7 k.l.",
"    m.n.o.p.q.r.f.s.t.            u.v.w.x.) ",
"    y.z.A.B.C.D.E.F.                G.H.I.J.",
"    K.L.M.N.O.P.T                           ",
"    Q.R.S.T.U.T                             ",
"      V.W.+.T                               ",
"                                            "};
