/* XPM */
static char * output_stdout_port_xpm[] = {
"32 16 5 1",
" 	c None",
".	c #000000",
"+	c #FFFFFF",
"@	c #30E533",
"#	c #CCCCCC",
"..                              ",
"..                              ",
"..                 +++++++++    ",
"..                +.........+   ",
"..  ...           +.@@.@@@@.+   ",
".. .###.     ..   +.........+   ",
"...#####.    .....+.@@.@@@@.+   ",
"...#####..........+.........+   ",
"...#####.    .... +.@@.@@@@.+   ",
".. .###.     ..   +.........+   ",
"..  ...           +.@@.@@@@.+   ",
"..                +.........+   ",
"..                 +++++++++    ",
"..                              ",
"..                              ",
"                                "};
