/* XPM */
static char * output_port_xpm[] = {
"18 15 3 1",
" 	c None",
".	c #000000",
"+	c #CCCCCC",
"..                ",
"..                ",
"..                ",
"..                ",
"..  ...           ",
".. .+++.    ..    ",
"...+++++.   ....  ",
"...+++++..........",
"...+++++.   ....  ",
".. .+++.    ..    ",
"..  ...           ",
"..                ",
"..                ",
"..                ",
"..                "};
