/* XPM */
static char * selected_xpm[] = {
"53 12 3 1",
" 	c None",
".	c #0000FF",
"+	c #FF0000",
".....................................................",
".                                                   .",
".    +++++       +++               +           +++  .",
".   ++  ++        ++               +            ++  .",
".  +++   +  ++++  +    +++   +++ ++++  ++++  +++++  .",
".   +++++  ++  +  +  ++  ++++  ++ ++  ++  + ++  ++  .",
".     +++++++++  ++  +++++ ++     ++ +++++ ++   +   .",
".  +    ++++     ++  ++    ++     +  ++    ++  ++   .",
".  ++  ++  ++ ++ +++ ++ ++ ++ ++ ++++ ++ ++ ++ +++  .",
".  + +++    ++    +   ++    ++    ++   ++    +  +   .",
".                                                   .",
"....................................................."};
