/* XPM */
static char * sync_port_xpm[] = {
"18 15 4 1",
" 	c None",
".	c #000000",
"+	c #FFFFFF",
"@	c #CCCCCC",
"..                ",
"..                ",
"..                ",
"..                ",
"..  ...           ",
".. .@@@.          ",
"...@@@@@.         ",
"...@@@@@..........",
"...@@@@@.         ",
".. .@@@.          ",
"..  ...           ",
"..                ",
"..                ",
"..                ",
"..                "};
