/* XPM */
static char * undefined_port_xpm[] = {
"18 15 4 1",
" 	c None",
".	c #000000",
"+	c #FF0000",
"@	c #0000CC",
"                  ",
"                  ",
"                  ",
"    +       +     ",
"     +     +      ",
"      +   +       ",
"       + +        ",
"        +         ",
"       + +        ",
"      +   +       ",
"     +     +      ",
"    +       +     ",
"                  ",
"                  ",
"                  "};
